<svg xmlns="http://www.w3.org/2000/svg" version="1.1" xmlns:xlink="http://www.w3.org/1999/xlink" xmlns:svgjs="http://svgjs.dev/svgjs" width="1500" height="1500" viewBox="0 0 1500 1500"><rect width="1500" height="1500" fill="#ffffff"></rect><g transform="matrix(0.6666666666666666,0,0,0.6666666666666666,249.43570304099285,347.70645161290327)"><svg viewBox="0 0 309 248" data-background-color="#122023" preserveAspectRatio="xMidYMid meet" height="1203" width="1500" xmlns="http://www.w3.org/2000/svg" xmlns:xlink="http://www.w3.org/1999/xlink"><g id="tight-bounds" transform="matrix(1,0,0,1,0.17436776033321166,0.4000000000000057)"><svg viewBox="0 0 308.6512644793336 247.2" height="247.2" width="308.6512644793336"><g><svg viewBox="0 0 395.52 316.77350865525636" height="247.2" width="308.6512644793336"><g><svg viewBox="0 0 395.52 120.99477198341697" height="120.99477198341697" width="395.52"><g id="textblocktransform"><svg viewBox="0 0 395.52 120.99477198341697" height="120.99477198341697" width="395.52" id="textblock"><g><svg viewBox="0 0 395.52 120.99477198341697" height="120.99477198341697" width="395.52"><g transform="matrix(1,0,0,1,0,0)"><svg width="395.52" viewBox="0.88 -34.23 111.88000000000001 34.23" height="120.99477198341697" data-palette-color="#e0dbc6"><path d="M11.45-1L11.45-1Q11.45-1.32 11.46-2.39 11.47-3.47 11.49-4.88 11.5-6.3 11.5-7.67 11.5-9.03 11.5-9.97 11.5-10.91 11.47-10.96L11.47-10.96Q10.79-12.57 10.02-14.16 9.25-15.75 8.5-17.31L8.5-17.31Q6.69-21.22 4.83-25.07 2.98-28.93 1.1-32.79L1.1-32.79Q0.88-33.23 0.88-33.54L0.88-33.54Q0.88-34.01 1.27-34.12 1.66-34.23 1.98-34.23L1.98-34.23 7.4-34.23Q8.01-34.23 8.33-33.62L8.33-33.62Q8.84-32.64 9.27-31.52 9.69-30.4 10.13-29.37L10.13-29.37Q11.21-26.76 12.28-24.15 13.35-21.53 14.48-18.92L14.48-18.92Q14.53-18.85 14.59-18.73 14.65-18.6 14.75-18.6L14.75-18.6Q14.87-18.6 14.93-18.74 14.99-18.87 15.01-18.95L15.01-18.95Q16.11-21.56 17.16-24.17 18.21-26.78 19.26-29.37L19.26-29.37Q19.65-30.3 20.13-31.54 20.61-32.79 21.02-33.62L21.02-33.62Q21.36-34.23 21.95-34.23L21.95-34.23 27.34-34.23Q27.69-34.23 28.08-34.12 28.47-34.01 28.47-33.54L28.47-33.54Q28.47-33.2 28.25-32.76L28.25-32.76Q26.27-28.71 24.28-24.69 22.29-20.68 20.34-16.6L20.34-16.6Q19.65-15.21 18.97-13.81 18.29-12.4 17.65-10.96L17.65-10.96 17.63-10.84Q17.63-8.4 17.65-5.93 17.68-3.47 17.68-1L17.68-1Q17.68 0 16.67 0L16.67 0 12.45 0Q11.45 0 11.45-1ZM53.71 0L30.61 0Q30.27 0 29.88-0.11 29.49-0.22 29.49-0.68L29.49-0.68Q29.49-0.88 29.56-1.06 29.64-1.25 29.71-1.42L29.71-1.42Q31.88-5.96 34.38-10.33 36.89-14.7 39.41-19.07 41.94-23.44 44.16-27.93L44.16-27.93Q44.24-28.08 44.24-28.15L44.24-28.15Q44.24-28.34 43.89-28.34L43.89-28.34 31.66-28.34Q31.13-28.34 30.92-28.59 30.71-28.83 30.66-29.32L30.66-29.32Q30.59-30.05 30.6-31.24 30.61-32.42 30.61-33.2L30.61-33.2Q30.61-34.23 31.61-34.23L31.61-34.23 53.12-34.23Q53.46-34.23 53.87-34.12 54.27-34.01 54.27-33.57L54.27-33.57Q54.27-33.18 54-32.74L54-32.74Q53.71-32.2 52.81-30.52 51.9-28.83 50.62-26.44 49.34-24.05 47.87-21.33 46.41-18.6 44.99-15.94 43.58-13.28 42.4-11.08 41.23-8.89 40.54-7.52 39.84-6.15 39.84-6.08L39.84-6.08Q39.84-5.88 40.16-5.88L40.16-5.88 53.64-5.88Q54.17-5.88 54.38-5.64 54.59-5.4 54.64-4.91L54.64-4.91Q54.71-4.2 54.71-3 54.71-1.81 54.71-1.03L54.71-1.03Q54.71 0 53.71 0L53.71 0ZM58.66-34.23L67.72-34.23Q71.33-34.23 74.26-33.04 77.19-31.86 78.91-29.38 80.63-26.9 80.63-22.97L80.63-22.97Q80.63-19.82 79.41-17.29 78.19-14.75 75.51-13.04L75.51-13.04Q75.34-12.96 75.34-12.79L75.34-12.79Q75.34-12.7 75.98-11.65 76.63-10.6 77.62-9.06 78.61-7.52 79.65-5.93 80.68-4.35 81.46-3.13 82.25-1.9 82.47-1.56L82.47-1.56Q82.59-1.37 82.71-1.14 82.83-0.9 82.83-0.63L82.83-0.63Q82.83-0.2 82.38-0.1 81.93 0 81.64 0L81.64 0 76.78 0Q76.29 0 75.95-0.44L75.95-0.44Q75.19-1.42 74.53-2.5 73.87-3.59 73.19-4.61L73.19-4.61Q72.11-6.27 71.02-7.92 69.92-9.57 68.87-11.25L68.87-11.25Q68.77-11.43 68.6-11.43L68.6-11.43 64.23-11.43Q63.94-11.43 63.94-11.13L63.94-11.13Q63.94-9.45 63.92-7.75 63.91-6.05 63.89-4.37L63.89-4.37Q63.89-3.66 63.92-2.65 63.96-1.64 63.86-0.98L63.86-0.98Q63.79-0.49 63.61-0.24 63.42 0 62.86 0L62.86 0 58.64 0Q57.64 0 57.64-1.03L57.64-1.03Q57.64-2.34 57.69-3.67 57.73-5 57.76-6.35L57.76-6.35Q57.83-11.91 57.83-17.5L57.83-17.5Q57.83-22.8 57.76-28.15L57.76-28.15Q57.73-29.42 57.7-30.68 57.66-31.93 57.66-33.2L57.66-33.2Q57.66-34.23 58.66-34.23L58.66-34.23ZM63.94-17.29L63.94-17.29 68.87-17.29Q71.28-17.29 72.8-18.8 74.31-20.31 74.31-22.75L74.31-22.75Q74.31-25.27 72.9-26.81 71.48-28.34 68.94-28.34L68.94-28.34 63.91-28.34Q63.94-25.59 63.94-22.81 63.94-20.04 63.94-17.29ZM95.74-1L95.74-1Q95.74-1.32 95.76-2.39 95.77-3.47 95.78-4.88 95.79-6.3 95.79-7.67 95.79-9.03 95.79-9.97 95.79-10.91 95.77-10.96L95.77-10.96Q95.09-12.57 94.32-14.16 93.55-15.75 92.79-17.31L92.79-17.31Q90.98-21.22 89.13-25.07 87.27-28.93 85.39-32.79L85.39-32.79Q85.17-33.23 85.17-33.54L85.17-33.54Q85.17-34.01 85.56-34.12 85.95-34.23 86.27-34.23L86.27-34.23 91.69-34.23Q92.3-34.23 92.62-33.62L92.62-33.62Q93.13-32.64 93.56-31.52 93.99-30.4 94.43-29.37L94.43-29.37Q95.5-26.76 96.57-24.15 97.65-21.53 98.77-18.92L98.77-18.92Q98.82-18.85 98.88-18.73 98.94-18.6 99.04-18.6L99.04-18.6Q99.16-18.6 99.22-18.74 99.28-18.87 99.31-18.95L99.31-18.95Q100.41-21.56 101.46-24.17 102.51-26.78 103.56-29.37L103.56-29.37Q103.95-30.3 104.42-31.54 104.9-32.79 105.31-33.62L105.31-33.62Q105.66-34.23 106.24-34.23L106.24-34.23 111.64-34.23Q111.98-34.23 112.37-34.12 112.76-34.01 112.76-33.54L112.76-33.54Q112.76-33.2 112.54-32.76L112.54-32.76Q110.56-28.71 108.57-24.69 106.58-20.68 104.63-16.6L104.63-16.6Q103.95-15.21 103.26-13.81 102.58-12.4 101.95-10.96L101.95-10.96 101.92-10.84Q101.92-8.4 101.95-5.93 101.97-3.47 101.97-1L101.97-1Q101.97 0 100.97 0L100.97 0 96.75 0Q95.74 0 95.74-1Z" opacity="1" transform="matrix(1,0,0,1,0,0)" fill="#000000" class="wordmark-text-0" data-fill-palette-color="primary" id="text-0"></path></svg></g></svg></g></svg></g></svg></g><g transform="matrix(1,0,0,1,139.0285980550554,149.5587337741741)"><svg viewBox="0 0 117.46280388988916 167.21477488108226" height="167.21477488108226" width="117.46280388988916"><g><svg xmlns="http://www.w3.org/2000/svg" xmlns:xlink="http://www.w3.org/1999/xlink" version="1.1" x="8" y="0" viewBox="25.681304008540195 9.914167274122496 48.64313078984736 80.16583272587751" style="enable-background:new 0 0 100 100;" xml:space="preserve" height="167.21477488108226" width="101.46280388988916" class="icon-icon-0" data-fill-palette-color="accent" id="icon-0"><path d="M73.24 10.53C71.99 9.56 70.16 9.76 69.16 10.96L52.11 31.38V12.71C52.11 11.17 50.81 9.92 49.21 9.92S46.31 11.17 46.31 12.71V30.9L30.91 11.04C29.95 9.8 28.13 9.55 26.85 10.47 25.56 11.39 25.3 13.14 26.26 14.38L46.3 40.25V87.29C46.3 88.83 47.6 90.08 49.2 90.08S52.1 88.83 52.1 87.29V40.31L73.68 14.46C74.69 13.25 74.49 11.5 73.24 10.53" fill="#000000" data-fill-palette-color="accent"></path></svg></g></svg></g><g><rect width="95.59423029472221" height="10.911433404069228" y="149.5587337741741" x="256.4914019449445" fill="#000000" data-fill-palette-color="accent"></rect><rect width="95.59423029472221" height="10.911433404069228" y="149.5587337741741" x="43.4343677603332" fill="#000000" data-fill-palette-color="accent"></rect><rect width="95.59423029472221" height="10.911433404069228" y="171.38160058231256" x="256.4914019449445" fill="#000000" data-fill-palette-color="accent"></rect><rect width="95.59423029472221" height="10.911433404069228" y="171.38160058231256" x="43.4343677603332" fill="#000000" data-fill-palette-color="accent"></rect></g></svg></g><defs></defs></svg><rect width="308.6512644793336" height="247.2" fill="none" stroke="none" visibility="hidden"></rect></g></svg></g></svg>